# xmcd
#
# Track frame offsets: 
#        150
#        4187
#        20819
#        44028
#        68965
#        95712
#        119004
#        138833
#        158867
#        188556
#        207970
#        235765
#
# Disc length: 3421 seconds
#
# Revision: 0
# Processed by: cddbd v1.5.1PL0 Copyright (c) Steve Scherf et al.
# Submitted via: ExactAudioCopy v0.95b2
#
DISCID=ab0d5b0c
DTITLE=Studebaker John and The Hawks - WFPK Studios (Live Lunch Program)
DTITLE=Louisville, KY.
DYEAR=2002
DGENRE=Blues
TTITLE0="Intro"
TTITLE1=Let It Slide
TTITLE2=Between Life And Death
TTITLE3=This Road
TTITLE4=I Deceive Myself
TTITLE5=Crazy For Your Love
TTITLE6="Interview"
TTITLE7=Juke Joint Jump
TTITLE8=If I Had A Nickle
TTITLE9=I Don't Know
TTITLE10=When I Look Into Your Eyes
TTITLE11=Hard Place And The Ground
EXTD=
EXTT0=
EXTT1=
EXTT2=
EXTT3=
EXTT4=
EXTT5=
EXTT6=
EXTT7=
EXTT8=
EXTT9=
EXTT10=
EXTT11=
PLAYORDER=
